<?xml version="1.0" encoding="utf-8"?>
<svg viewBox="0 0 100 125" xmlns="http://www.w3.org/2000/svg">
  <g>
    <path d="M 22.732 80.474 C 22.732 80.474 27.804 118.955 29.427 120.985 C 31.05 123.013 32.673 122 32.673 122 L 29.832 98.467 L 27.109 98.44 C 27.109 98.44 27.109 85.135 26.179 85.687 C 24.779 86.518 22.732 80.474 22.732 80.474 Z" style="fill: rgb(255, 255, 255);"/>
    <path d="M 30.035 35.982 L 18.674 4.538 C 18.674 4.538 22.004 3.31 27.109 2.736 C 36.966 1.625 75.491 -6.789 81.16 113.886 C 81.16 113.886 82.03 116.118 81.189 116.727 C 80.348 117.337 78.725 118.351 76.697 116.727 C 76.697 116.727 70.407 91.57 70.204 90.555 L 67.161 90.76 C 67.161 90.76 66.146 87.107 67.566 86.703 C 67.566 86.703 75.276 85.079 74.464 89.341 C 74.464 89.341 75.884 87.513 72.436 85.08 L 72.436 80.211 C 72.436 80.211 73.246 80.009 72.029 77.573 C 72.029 77.573 76.492 50.592 63.103 44.708 C 63.103 44.708 55.798 30.305 37.947 35.376 L 30.035 35.982 Z" style="fill: rgb(255, 255, 255);"/>
    <path d="M 26.179 38.011 L 35.31 38.011 L 36.527 45.517 C 36.527 45.517 31.05 43.285 29.427 43.082 L 26.179 38.011 Z" style="fill: rgb(255, 255, 255);"/>
    <path d="M 35.31 38.011 L 36.527 45.517 L 37.948 46.33 C 37.948 46.33 43.018 35.779 62.901 44.502 C 62.901 44.502 50.728 26.854 35.31 38.011 Z" style="fill: rgb(255, 255, 255);"/>
    <path d="M 29.63 44.097 C 29.63 44.097 20.907 49.169 19.689 57.487 C 18.471 65.803 19.282 77.368 19.689 78.586 C 20.094 79.803 25.166 81.019 26.179 82.643 C 27.194 84.265 27.602 93.395 28.412 97.655 C 28.412 97.655 36.73 97.046 37.34 95.423 C 37.34 95.423 31.05 88.321 33.283 81.628 C 33.283 81.628 52.149 77.975 56.206 73.715 C 56.206 73.715 58.236 77.165 58.641 81.018 C 59.047 84.873 42.411 89.743 42.411 89.743 C 42.411 89.743 46.064 119.362 46.064 121.797 C 46.064 121.797 47.282 126.057 55.6 115.304 C 55.6 115.304 67.772 99.481 68.582 96.234 C 68.582 96.234 66.147 91.568 66.756 90.351 C 66.756 90.351 66.762 86.174 67.365 86.091 C 74.282 85.134 74.465 88.323 74.465 88.323 C 74.465 88.323 75.074 86.901 72.232 84.873 C 72.232 84.873 72.437 81.83 72.437 79.803 C 72.437 79.804 46.986 45.517 29.63 44.097 Z" style="fill: rgb(255, 255, 255);"/>
    <path display="none" d="M34.521,91.598c0,0-0.013-4.93-0.257-7.075l3.295-0.126c0,0,1.043,7.842,7.938,6.107   l0.796,5.121c0,0-7.481,2.506-11.032,0.399L34.521,91.598z"/>
    <g transform="matrix(1.209538, 0, 0, 1.209538, -10.386179, 1.677443)" style="">
      <path d="M39.961,36.917C39.961,36.917,52,43,67,62c0,0,9-29-19-29C48,33,42.922,32.834,39.961,36.917z" style="fill: rgb(255, 255, 255);"/>
    </g>
  </g>
</svg>